<svg width="72" height="72" viewBox="0 0 72 72" fill="none" xmlns="http://www.w3.org/2000/svg">
<g filter="url(#filter0_d_18_4)">
<circle cx="36" cy="34" r="20" fill="#7D4670"/>
</g>
<path d="M44.9732 30.7955C44.9732 30.7955 44.8347 30.3939 43.9741 30.5044L41.1251 30.5244C40.9075 30.4943 40.7492 30.5847 40.7492 30.5847C40.7492 30.5847 40.581 30.675 40.5019 30.8958C40.037 32.1105 39.4434 33.1544 39.4434 33.1544C38.1772 35.3427 37.6628 35.4632 37.4551 35.3226C36.9703 35.0115 37.0989 34.0578 37.0989 33.3753C37.0989 31.2472 37.4155 30.3638 36.4757 30.133C36.1691 30.0627 35.9415 30.0125 35.1403 30.0025C34.1213 29.9924 33.2607 30.0025 32.776 30.2434C32.4495 30.404 32.2022 30.7654 32.3506 30.7854C32.5386 30.8155 32.9639 30.9059 33.1915 31.2171C33.1915 31.2171 33.4388 31.6286 33.4783 32.5321C33.5872 35.0315 33.0826 35.3427 33.0826 35.3427C32.6968 35.5535 32.0242 35.2022 31.0349 33.1343C31.0349 33.1343 30.4612 32.1105 30.016 30.9862C29.9369 30.7754 29.7786 30.665 29.7786 30.665C29.7786 30.665 29.6005 30.5244 29.3433 30.4843L26.6328 30.5044C26.2174 30.5044 26.069 30.6951 26.069 30.6951C26.069 30.6951 25.9206 30.8557 26.0591 31.187C28.176 36.2361 30.5898 38.7657 30.5898 38.7657C30.5898 38.7657 32.7958 41.1046 35.2985 40.944H36.4361C36.7824 40.9139 36.9604 40.7231 36.9604 40.7231C36.9604 40.7231 37.1187 40.5425 37.1088 40.2112C37.089 38.6653 37.8013 38.4345 37.8013 38.4345C38.4938 38.2136 39.3841 39.9301 40.3337 40.5926C40.3337 40.5926 41.0559 41.0945 41.5999 40.9841L44.1324 40.944C45.4678 40.9339 44.8347 39.8097 44.8347 39.8097C44.7853 39.7193 44.4687 39.0267 42.9453 37.5913C41.3625 36.0956 41.5703 36.3365 43.4894 33.7467C44.6567 32.1707 45.1216 31.207 44.9732 30.7955Z" fill="white"/>
<defs>
<filter id="filter0_d_18_4" x="0" y="0" width="72" height="72" filterUnits="userSpaceOnUse" color-interpolation-filters="sRGB">
<feFlood flood-opacity="0" result="BackgroundImageFix"/>
<feColorMatrix in="SourceAlpha" type="matrix" values="0 0 0 0 0 0 0 0 0 0 0 0 0 0 0 0 0 0 127 0" result="hardAlpha"/>
<feOffset dy="2"/>
<feGaussianBlur stdDeviation="8"/>
<feComposite in2="hardAlpha" operator="out"/>
<feColorMatrix type="matrix" values="0 0 0 0 0 0 0 0 0 0 0 0 0 0 0 0 0 0 0.11 0"/>
<feBlend mode="normal" in2="BackgroundImageFix" result="effect1_dropShadow_18_4"/>
<feBlend mode="normal" in="SourceGraphic" in2="effect1_dropShadow_18_4" result="shape"/>
</filter>
</defs>
</svg>
